<svg xmlns="http://www.w3.org/2000/svg" width="40" height="40" fill="none" viewBox="0 0 40 40"><path stroke="#22174A" stroke-linecap="round" stroke-linejoin="round" stroke-width="2" d="M18 16h-5v4h3a2 2 0 0 1 0 4h-3m14-8h-3a2 2 0 0 0-2 2v4a2 2 0 0 0 2 2h3v-4h-1"/><path stroke="#22174A" stroke-linecap="round" stroke-linejoin="round" stroke-width="2" d="M19 5.667h-.833A14.167 14.167 0 0 0 4 19.833v0a15.833 15.833 0 0 0 15.833 15.834v0A14.168 14.168 0 0 0 34 21.5v-.833M27.333 9a3.334 3.334 0 0 1 3.334 3.333M27.333 4a8.333 8.333 0 0 1 8.334 8.333"/></svg>