<svg xmlns="http://www.w3.org/2000/svg" width="24" height="24" fill="none" viewBox="0 0 24 24"><path stroke="#22174A" stroke-linecap="round" stroke-linejoin="round" stroke-width="1.5" d="m18.064 1.264-4.412 1.637a.5.5 0 0 0-.023.928l4.412 1.894a.5.5 0 0 0 .394 0L22.85 3.83a.5.5 0 0 0-.023-.928l-4.415-1.637a.5.5 0 0 0-.348 0Z"/><path stroke="#22174A" stroke-linecap="round" stroke-linejoin="round" stroke-width="1.5" d="M15.36 4.656v2.336c0 .04.004.079.015.116.05.17.137.319.252.432.464.51 1.458.86 2.606.86 1.149 0 2.143-.35 2.607-.86a1 1 0 0 0 .252-.432.413.413 0 0 0 .015-.116V4.656M13.5 9h-3A1.5 1.5 0 0 0 9 10.5v3a1.5 1.5 0 0 0 1.5 1.5h3a1.5 1.5 0 0 0 1.5-1.5v-3A1.5 1.5 0 0 0 13.5 9Zm8.5 6h-3M5 9H2m3 6H2M9 2v3m0 14v3m6-3v3m-3-3v3"/><path stroke="#22174A" stroke-linecap="round" stroke-linejoin="round" stroke-width="1.5" d="M10.833 5H8.5A3.5 3.5 0 0 0 5 8.5v7A3.5 3.5 0 0 0 8.5 19h7a3.5 3.5 0 0 0 3.5-3.5v-3.533M5 12H2"/></svg>