<svg xmlns="http://www.w3.org/2000/svg" width="24" height="24" fill="none" viewBox="0 0 24 24"><path stroke="#22174A" stroke-linecap="round" stroke-linejoin="round" stroke-width="2" d="M19.5 3h-15A1.5 1.5 0 0 0 3 4.5v5A1.5 1.5 0 0 0 4.5 11h15A1.5 1.5 0 0 0 21 9.5v-5A1.5 1.5 0 0 0 19.5 3ZM10 19H4.5A1.5 1.5 0 0 1 3 17.5v-5A1.5 1.5 0 0 1 4.5 11m11.75 6.5 1 1 1.5-1.5"/><path stroke="#22174A" stroke-linecap="round" stroke-linejoin="round" stroke-width="2" d="M13.5 18.442v-2.266a1.332 1.332 0 0 1 .881-1.255l2.034-.732a3.2 3.2 0 0 1 2.168 0l2.036.733a1.334 1.334 0 0 1 .881 1.254v2.267c0 1.697-2.375 2.953-3.467 3.442a1.296 1.296 0 0 1-1.066 0c-1.092-.49-3.467-1.748-3.467-3.443Z"/></svg>