<svg xmlns="http://www.w3.org/2000/svg" width="24" height="24" fill="none" viewBox="0 0 24 24"><rect width="6" height="5" x="4" y="3" stroke="#22174A" stroke-linecap="round" stroke-linejoin="round" stroke-width="2" rx="1"/><rect width="4" height="4" x="16" y="11" stroke="#22174A" stroke-linecap="round" stroke-linejoin="round" stroke-width="2" rx="1"/><rect width="8" height="5" x="13" y="3" stroke="#22174A" stroke-linecap="round" stroke-linejoin="round" stroke-width="2" rx="1"/><path stroke="#22174A" stroke-linecap="round" stroke-linejoin="round" stroke-width="2" d="M6 16h2m2 0H8m0 0v-2m0 2v2m-3 3h6a2 2 0 0 0 2-2v-6a2 2 0 0 0-2-2H5a2 2 0 0 0-2 2v6a2 2 0 0 0 2 2Z"/></svg>