<svg xmlns="http://www.w3.org/2000/svg" width="24" height="24" fill="none" viewBox="0 0 24 24"><path stroke="#22174A" stroke-linecap="round" stroke-linejoin="round" stroke-width="2" d="m13.307 3.541 2.427 2.427a1.85 1.85 0 0 1 0 2.614l-2.427 2.427a1.85 1.85 0 0 1-2.614 0L8.266 8.582a1.85 1.85 0 0 1 0-2.614l2.427-2.427a1.85 1.85 0 0 1 2.614 0v0ZM21 15.667v3.467c0 1.03-.836 1.866-1.867 1.866h-3.467a1.867 1.867 0 0 1-1.867-1.867v-3.467c0-1.03.836-1.867 1.867-1.867h3.467A1.869 1.869 0 0 1 21 15.667ZM3 17.4a3.6 3.6 0 1 1 7.2 0 3.6 3.6 0 0 1-7.2 0v0Z"/></svg>