<svg xmlns="http://www.w3.org/2000/svg" width="24" height="24" fill="none" viewBox="0 0 24 24"><path stroke="#22174A" stroke-linecap="round" stroke-linejoin="round" stroke-width="2" d="M12 19H7.5C5.667 19 2 17.9 2 13.5S5.667 8 7.5 8c.5-1 2.2-3 5-3 3.5 0 5 3.5 5 5 .786 0 1.983.247 2.946 1"/><path stroke="#22174A" stroke-linecap="round" stroke-linejoin="round" stroke-width="2" d="M21 14h-4a1 1 0 0 0-1 1v6.396c0 .223.27.335.427.177l1.866-1.866a1 1 0 0 1 1.414 0l1.866 1.866a.25.25 0 0 0 .427-.177V15a1 1 0 0 0-1-1Z"/></svg>