<svg xmlns="http://www.w3.org/2000/svg" width="24" height="24" fill="none" viewBox="0 0 24 24"><path stroke="#22174A" stroke-linecap="round" stroke-linejoin="round" stroke-width="2" d="M13.5 9h-3A1.5 1.5 0 0 0 9 10.5v3a1.5 1.5 0 0 0 1.5 1.5h3a1.5 1.5 0 0 0 1.5-1.5v-3A1.5 1.5 0 0 0 13.5 9Zm8.5 6h-3M5 9H2m3 6H2M9 2v3m0 14v3m6-3v3m-3-3v3"/><path stroke="#22174A" stroke-linecap="round" stroke-linejoin="round" stroke-width="2" d="M10.833 5H8.5A3.5 3.5 0 0 0 5 8.5v7A3.5 3.5 0 0 0 8.5 19h7a3.5 3.5 0 0 0 3.5-3.5v-2.333M14 5a5 5 0 0 1 5 5m-5-8a8 8 0 0 1 8 8v0M5 12H2"/></svg>