<svg xmlns="http://www.w3.org/2000/svg" width="40" height="40" fill="none" viewBox="0 0 40 40"><path stroke="#22174A" stroke-linecap="round" stroke-linejoin="round" stroke-width="3" d="M32.5 35.023h-25a3.332 3.332 0 0 1-3.333-3.333V8.357A3.332 3.332 0 0 1 7.5 5.023h25a3.332 3.332 0 0 1 3.333 3.334V31.69a3.332 3.332 0 0 1-3.333 3.333ZM4.167 13.357h31.666"/><circle cx="7.942" cy="9.118" r="1.471" fill="#22174A"/><circle cx="12.059" cy="9.118" r="1.471" fill="#22174A"/><circle cx="16.177" cy="9.118" r="1.471" fill="#22174A"/><path stroke="#22174A" stroke-linecap="round" stroke-linejoin="round" stroke-width="2" d="M20 19.19v1.667m0 6.666v1.667m-4.333-7.5 1.436.833m5.794 3.334 1.436.833m-8.666 0 1.436-.833m5.794-3.334 1.436-.833m-1.976.143a3.333 3.333 0 1 1-4.713 4.714 3.333 3.333 0 0 1 4.713-4.714Z"/></svg>