<svg xmlns="http://www.w3.org/2000/svg" width="24" height="24" fill="none" viewBox="0 0 24 24"><path stroke="#22174A" stroke-linecap="round" stroke-linejoin="round" stroke-width="2" d="M16.8 21a4 4 0 1 0 0-8 4 4 0 0 0 0 8Z"/><path stroke="#22174A" stroke-linecap="round" stroke-linejoin="round" stroke-width="2" d="m15.55 16.887 1 1 1.5-1.5m2.32-5.785.038-.038a2.019 2.019 0 0 0-1.384-3.448l-.118-.003a2.02 2.02 0 0 1-1.976-2.02V5.04a2.02 2.02 0 0 0-3.417-1.46l-.085.082a2.02 2.02 0 0 1-2.826-.03l-.038-.04a2.02 2.02 0 0 0-3.448 1.385l-.003.118a2.02 2.02 0 0 1-2.02 1.976H5.04a2.02 2.02 0 0 0-1.46 3.417l.082.085a2.02 2.02 0 0 1-.03 2.826l-.04.038a2.02 2.02 0 0 0 1.385 3.448l.118.002a2.02 2.02 0 0 1 1.976 2.02v.055a2.02 2.02 0 0 0 3.417 1.459l.085-.082m-.372-6.603a2.5 2.5 0 0 1 3.535-3.535"/></svg>