<svg xmlns="http://www.w3.org/2000/svg" width="24" height="24" fill="none" viewBox="0 0 24 24"><path stroke="#22174A" stroke-linecap="round" stroke-linejoin="round" stroke-width="2" d="M11.552 3.908a.5.5 0 0 1 .896 0l2.375 4.811a.5.5 0 0 0 .376.274l5.309.771a.5.5 0 0 1 .277.853l-3.841 3.745a.5.5 0 0 0-.144.442l.907 5.288a.5.5 0 0 1-.726.527l-4.748-2.497a.5.5 0 0 0-.466 0L7.02 20.62a.5.5 0 0 1-.726-.527l.907-5.288a.5.5 0 0 0-.144-.442l-3.841-3.745a.5.5 0 0 1 .277-.853l5.309-.771a.5.5 0 0 0 .376-.274l2.375-4.81Z"/></svg>