<svg xmlns="http://www.w3.org/2000/svg" width="24" height="24" fill="none" viewBox="0 0 24 24"><path stroke="#22174A" stroke-linecap="round" stroke-linejoin="round" stroke-width="2" d="M12 21a9.004 9.004 0 0 1-8.5-6.034M12 21a9.004 9.004 0 0 0 8.5-6.034M12 21a12.668 12.668 0 0 0 3.38-6.034M12 21a12.701 12.701 0 0 1-2.578-3.706M12 3a9 9 0 0 0-8.5 6.035M12 3a9.004 9.004 0 0 1 8.5 6.035M12 3a12.668 12.668 0 0 0-3.38 6.035M12 3a12.692 12.692 0 0 1 2.708 4M20.5 9.035c.324.928.5 1.926.5 2.965a8.988 8.988 0 0 1-.5 2.966m0-5.931H17m-13.5 0A8.987 8.987 0 0 0 3 12a8.99 8.99 0 0 0 .5 2.966m0-5.931h5.12m-5.12 5.93h3m14 0h-5.12m-6.76-5.93H13m-4.38 0c-.31 1.3-.413 2.639-.309 3.965m7.069 1.966c.31-1.3.413-2.64.309-3.966m-.31 3.966H11.5"/><circle cx="15" cy="9" r="2" stroke="#22174A" stroke-linecap="round" stroke-linejoin="round" stroke-width="2"/><circle cx="9" cy="15" r="2" stroke="#22174A" stroke-linecap="round" stroke-linejoin="round" stroke-width="2"/></svg>