<svg xmlns="http://www.w3.org/2000/svg" width="24" height="24" fill="none" viewBox="0 0 24 24"><path stroke="#000" stroke-linecap="round" stroke-linejoin="round" stroke-width="2" d="M17.001 18.999A10.06 10.06 0 0 0 19 17M6.999 18.999A10.059 10.059 0 0 1 5 17M6.999 5A10.059 10.059 0 0 0 5 6.999M17.001 5A10.07 10.07 0 0 1 19 6.999"/><path fill="#000" fill-rule="evenodd" d="M5 15a3 3 0 1 0 0-6 3 3 0 0 0 0 6Zm0-2a1 1 0 1 0 0-2 1 1 0 0 0 0 2Zm14 2a3 3 0 1 0 0-6 3 3 0 0 0 0 6Zm0-2a1 1 0 1 0 0-2 1 1 0 0 0 0 2Zm-7-5a3 3 0 1 0 0-6 3 3 0 0 0 0 6Zm0-2a1 1 0 1 0 0-2 1 1 0 0 0 0 2Zm0 16a3 3 0 1 0 0-6 3 3 0 0 0 0 6Zm0-2a1 1 0 1 0 0-2 1 1 0 0 0 0 2Z" clip-rule="evenodd"/><rect width="2" height="6" x="11.031" y="9" fill="#000" rx="1"/><rect width="2" height="6" x="9" y="13" fill="#000" rx="1" transform="rotate(-90 9 13)"/></svg>