<svg xmlns="http://www.w3.org/2000/svg" width="24" height="24" fill="none" viewBox="0 0 24 24"><path stroke="#22174A" stroke-linecap="round" stroke-linejoin="round" stroke-width="2" d="M20.632 9.612a1.926 1.926 0 0 1 0 2.759 2.012 2.012 0 0 1-2.809 0 1.926 1.926 0 0 1 0-2.76 2.012 2.012 0 0 1 2.81 0Zm-6.47-3.482a2.966 2.966 0 0 1 0 4.248 3.098 3.098 0 0 1-4.325 0 2.966 2.966 0 0 1 0-4.248 3.098 3.098 0 0 1 4.325 0M6.177 9.612a1.926 1.926 0 0 1 0 2.759 2.012 2.012 0 0 1-2.81 0 1.926 1.926 0 0 1 0-2.76 2.012 2.012 0 0 1 2.81 0ZM22.8 18.75v-1.057c0-1.331-1.1-2.41-2.456-2.41h-.786M1.2 18.75v-1.057c0-1.331 1.099-2.41 2.454-2.41h.787m12.801 3.467v-1.544c0-1.864-1.539-3.375-3.437-3.375h-3.612c-1.898 0-3.436 1.511-3.436 3.375v1.544"/></svg>