<svg xmlns="http://www.w3.org/2000/svg" width="24" height="24" fill="none" viewBox="0 0 24 24"><path stroke="#22174A" stroke-linecap="round" stroke-linejoin="round" stroke-width="2" d="M10.722 21.695a2.833 2.833 0 0 0 2.56-.002C15.775 20.435 21 17.301 21 13.083V6.988a1.127 1.127 0 0 0-.296-.745 1.141 1.141 0 0 0-.719-.363 12.868 12.868 0 0 1-6.606-2.427 2.319 2.319 0 0 0-2.758 0A12.868 12.868 0 0 1 4.015 5.88 1.128 1.128 0 0 0 3 6.988v6.093"/><path stroke="#22174A" stroke-linecap="round" stroke-linejoin="round" stroke-width="2" d="m14 11-2.499 3L10 12.2m-7 9.4 5.4-5.4m0 0v3.375m0-3.375H5.025"/></svg>