<svg xmlns="http://www.w3.org/2000/svg" width="24" height="24" fill="none" viewBox="0 0 24 24"><path stroke="#22174A" stroke-linecap="round" stroke-linejoin="round" stroke-width="2" d="M18.8 17c1.731-.522 3-2.109 3-4.009a4.21 4.21 0 0 0-4.211-4.207A5.787 5.787 0 0 0 11.8 3a5.787 5.787 0 0 0-5.789 5.784A4.21 4.21 0 0 0 1.8 12.991c0 1.9 1.269 3.487 3 4.009"/><path stroke="#22174A" stroke-linecap="round" stroke-linejoin="round" stroke-width="2" d="M7.8 17.047c0 1.883 2.315 3.282 3.38 3.825a1.125 1.125 0 0 0 1.04 0c1.065-.543 3.38-1.939 3.38-3.825v-2.675a.508.508 0 0 0-.139-.336.495.495 0 0 0-.326-.153 5.508 5.508 0 0 1-2.862-1.09.948.948 0 0 0-1.146 0 5.507 5.507 0 0 1-2.862 1.09.489.489 0 0 0-.328.151.501.501 0 0 0-.137.338v2.675Z"/></svg>