<svg xmlns="http://www.w3.org/2000/svg" width="24" height="24" fill="none" viewBox="0 0 24 24"><path stroke="#22174A" stroke-linecap="round" stroke-linejoin="round" stroke-width="2" d="M21 13.082c0 4.219-5.226 7.353-7.717 8.611a2.832 2.832 0 0 1-2.561.002C8.232 20.438 3 17.297 3 13.082V6.99a1.133 1.133 0 0 1 1.015-1.108 12.868 12.868 0 0 0 6.606-2.427 2.32 2.32 0 0 1 2.758 0 12.868 12.868 0 0 0 6.606 2.427A1.128 1.128 0 0 1 21 6.99v6.093Z"/><path stroke="#22174A" stroke-linecap="round" stroke-linejoin="round" stroke-width="2" d="m14 11-2.499 3L10 12.2"/></svg>