<svg xmlns="http://www.w3.org/2000/svg" width="24" height="24" fill="none" viewBox="0 0 24 24"><path stroke="#22174A" stroke-linecap="round" stroke-linejoin="round" stroke-width="2" d="M12 9H5a2 2 0 0 0-2 2v7a2 2 0 0 0 2 2h6m-5-5h3m-3-3h3m3 1V6a2 2 0 0 1 2-2h5a2 2 0 0 1 2 2v5m-6-1h3m-3-3h3m0 8v-1m0 1c-.83 0-1.58.337-2.124.881M18 15c.83 0 1.58.337 2.124.881M18 21v1m0-1a2.99 2.99 0 0 0 2.121-.879M18 21a2.99 2.99 0 0 1-2.121-.879M21 18h1m-1 0a2.99 2.99 0 0 1-.879 2.121M21 18a2.99 2.99 0 0 0-.876-2.119M15 18h-1m1 0c0-.827.335-1.576.876-2.119M15 18c0 .828.336 1.578.879 2.121m-.003-4.24L15 15.005m5.121 5.116L21 21m-5.121-.879L15 21m5.124-5.119.876-.876M18 18h.01"/></svg>