<svg xmlns="http://www.w3.org/2000/svg" width="24" height="24" fill="none" viewBox="0 0 24 24"><path stroke="#22174A" stroke-linecap="round" stroke-linejoin="round" stroke-width="2" d="M13.5 21h-3l-.649-2.336a6.96 6.96 0 0 1-1.043-.433l-2.111 1.194-2.122-2.122 1.194-2.11a6.952 6.952 0 0 1-.433-1.044L3 13.5v-3l2.336-.649a6.92 6.92 0 0 1 .433-1.043L4.575 6.697l2.122-2.122 2.11 1.194a6.955 6.955 0 0 1 1.044-.433L10.5 3h3l.649 2.336c.361.116.71.262 1.043.433l2.111-1.194 2.122 2.122-1.194 2.11c.171.334.316.683.433 1.044L21 10.5v3l-2.336.649c-.117.361-.262.71-.433 1.043l1.194 2.111-2.122 2.122-2.11-1.194a6.957 6.957 0 0 1-1.044.433L13.5 21Z"/><circle cx="12" cy="12" r="3" stroke="#22174A" stroke-width="2"/></svg>