<svg xmlns="http://www.w3.org/2000/svg" width="24" height="24" fill="none" viewBox="0 0 24 24"><path stroke="#22174A" stroke-linecap="round" stroke-linejoin="round" stroke-width="2" d="M5 6h1M5 9h1m-1 3h1m-1 3h1m-1 3h1m-2 3h3a2 2 0 0 0 2-2V5a2 2 0 0 0-2-2H4a2 2 0 0 0-2 2v14a2 2 0 0 0 2 2Z"/><circle cx="14" cy="17" r="2" stroke="#22174A" stroke-linecap="round" stroke-linejoin="round" stroke-width="2"/><circle cx="20" cy="8" r="2" stroke="#22174A" stroke-linecap="round" stroke-linejoin="round" stroke-width="2"/><path stroke="#22174A" stroke-linecap="round" stroke-linejoin="round" stroke-width="2" d="M14 3v12m0 4v2m6 0V10m0-4V3"/></svg>