<svg xmlns="http://www.w3.org/2000/svg" width="24" height="25" fill="none" viewBox="0 0 24 25"><path stroke="#22174A" stroke-linecap="round" stroke-linejoin="round" stroke-width="2" d="M1.5 6.14v7.087c0 4.902 6.045 8.556 8.923 10.019a3.256 3.256 0 0 0 2.96-.003c2.879-1.463 8.917-5.109 8.917-10.016V6.134a1.31 1.31 0 0 0-1.17-1.283 14.81 14.81 0 0 1-7.637-2.823 2.668 2.668 0 0 0-3.186 0A14.81 14.81 0 0 1 2.673 4.85 1.316 1.316 0 0 0 1.5 6.141Z"/><path stroke="#22174A" stroke-linecap="round" stroke-linejoin="round" stroke-width="2" d="M14.608 17.425H9.192a1.083 1.083 0 0 1-1.084-1.083V12.01c0-.599.485-1.084 1.084-1.084h5.416c.599 0 1.084.485 1.084 1.084v4.333c0 .599-.485 1.084-1.084 1.084ZM11.9 15.307v-1.403"/><path stroke="#22174A" stroke-linecap="round" stroke-linejoin="round" stroke-width="2" d="M12.187 13.211a.406.406 0 1 1-.575.575.406.406 0 0 1 .575-.575Zm-2.454-2.286V9.842a2.167 2.167 0 0 1 4.334 0v1.083"/></svg>