<svg xmlns="http://www.w3.org/2000/svg" width="24" height="24" fill="none" viewBox="0 0 24 24"><path stroke="#22174A" stroke-linecap="round" stroke-linejoin="round" stroke-width="2" d="M19 9V5c-1.5.167-5 0-7-2-2 2-5.5 2.167-7 2v9c0 2.191 2.1 4.082 4 5.344"/><path stroke="#22174A" stroke-linecap="round" stroke-linejoin="round" stroke-width="2" d="M22 17a5 5 0 0 1-5 5m5-5a5 5 0 0 0-5-5m5 5h-3a1 1 0 0 0-1 1v.162a.838.838 0 0 1-.838.838.838.838 0 0 0-.794 1.103L17 22m0 0a5 5 0 0 1-4.584-7M17 12v1.764a2 2 0 0 1-1.106 1.789L15 16l-2.584-1M17 12a5.001 5.001 0 0 0-4.584 3"/></svg>