<svg viewBox="0 0 52 25.9" xmlns="http://www.w3.org/2000/svg"><path d="m21.5 4.8-3.5 16.3h4.2l3.5-16.3zm9.7 4.5c0-.6.6-1.2 1.8-1.4a8.07 8.07 0 0 1 4.1.7l.7-3.4a10.47 10.47 0 0 0 -3.9-.7c-4.2 0-7.1 2.2-7.1 5.4 0 2.3 2.1 3.6 3.7 4.4s2.2 1.3 2.2 2c0 1.1-1.3 1.6-2.5 1.6a10 10 0 0 1 -4.3-1l-.8 3.6a13.47 13.47 0 0 0 4.7.9c4.4 0 7.3-2.2 7.3-5.6 0-4.3-5.9-4.6-5.9-6.5zm13.8-4.5a2 2 0 0 0 -1.8 1.2l-6.3 15.1h4.4l.9-2.4h5.4l.5 2.4h3.9l-3.4-16.2h-3.6zm-1.6 10.5 2.2-6.1 1.3 6.1zm-28.1-10.5-4.4 11.1-1.8-9.4a2 2 0 0 0 -1.9-1.7h-7.1l-.1.5a14.07 14.07 0 0 1 4.1 1.4 1.71 1.71 0 0 1 1 1.4l3.3 13h4.4l6.8-16.2h-4.3z" fill="#A2A3A7"/></svg>